<svg xmlns="http://www.w3.org/2000/svg" viewBox="0 0 240 320" role="img" aria-label="Fang the Fox card">
  <title>Fang the Fox</title>
  <defs>
    <linearGradient id="bg" x1="0" y1="0" x2="0" y2="1">
      <stop offset="0%" stop-color="#f43f5e"/>
      <stop offset="100%" stop-color="#881337"/>
    </linearGradient>
    <linearGradient id="ff" x1="0" y1="0" x2="0" y2="1">
      <stop offset="0%" stop-color="#a78bfa"/>
      <stop offset="100%" stop-color="#5b21b6"/>
    </linearGradient>
  </defs>
  <rect x="4" y="4" width="232" height="312" rx="20" fill="url(#bg)"/>
  <rect x="4" y="4" width="232" height="312" rx="20" fill="none" stroke="#ffffff" stroke-width="6" opacity="0.5"/>
  <g stroke-linejoin="round">
    <path d="M 60 200 C 44 214 42 246 64 260 L 96 246 C 84 232 78 214 84 200 Z" fill="url(#ff)" stroke="#2b2540" stroke-width="4"/>
    <path d="M 74 96 L 58 44 L 104 74 Z" fill="url(#ff)" stroke="#2b2540" stroke-width="4"/>
    <path d="M 166 96 L 182 44 L 136 74 Z" fill="url(#ff)" stroke="#2b2540" stroke-width="4"/>
    <path d="M 74 84 L 64 54 L 94 74 Z" fill="#fda4af" stroke="#2b2540" stroke-width="3"/>
    <path d="M 166 84 L 176 54 L 146 74 Z" fill="#fda4af" stroke="#2b2540" stroke-width="3"/>
    <circle cx="120" cy="134" r="62" fill="url(#ff)" stroke="#2b2540" stroke-width="5"/>
    <ellipse cx="120" cy="158" rx="34" ry="26" fill="#ede9fe" stroke="#2b2540" stroke-width="4"/>
    <circle cx="120" cy="150" r="7" fill="#2b2540"/>
    <path d="M 120 158 L 108 170 M 120 158 L 132 170" stroke="#2b2540" stroke-width="4" stroke-linecap="round" fill="none"/>
    <rect x="74" y="104" width="40" height="26" rx="13" fill="#1f2430" stroke="#2b2540" stroke-width="4"/>
    <rect x="126" y="104" width="40" height="26" rx="13" fill="#1f2430" stroke="#2b2540" stroke-width="4"/>
    <line x1="114" y1="114" x2="126" y2="114" stroke="#2b2540" stroke-width="5"/>
    <circle cx="86" cy="112" r="5" fill="#f43f5e"/>
    <circle cx="138" cy="112" r="5" fill="#f43f5e"/>
    <path d="M 70 88 C 84 66 156 66 170 88 L 164 96 C 150 78 90 78 76 96 Z" fill="#e11d48" stroke="#2b2540" stroke-width="4"/>
    <circle cx="188" cy="196" r="22" fill="#fbbf24" stroke="#2b2540" stroke-width="4"/>
    <rect x="206" y="190" width="26" height="12" rx="6" fill="#a16207" stroke="#2b2540" stroke-width="4"/>
    <circle cx="188" cy="196" r="8" fill="#fde68a"/>
    <path d="M 96 196 C 96 236 144 236 144 196 L 144 260 L 96 260 Z" fill="url(#ff)" stroke="#2b2540" stroke-width="4"/>
    <path d="M 96 214 L 74 244 M 144 214 L 166 244" stroke="#2b2540" stroke-width="6" stroke-linecap="round" fill="none"/>
    <rect x="86" y="256" width="26" height="22" rx="8" fill="#e11d48" stroke="#2b2540" stroke-width="4"/>
    <rect x="128" y="256" width="26" height="22" rx="8" fill="#e11d48" stroke="#2b2540" stroke-width="4"/>
  </g>
  <text x="120" y="300" text-anchor="middle" font-family="sans-serif" font-size="22" font-weight="bold" fill="#ffffff">Fang the Fox</text>
</svg>
