<svg xmlns="http://www.w3.org/2000/svg" viewBox="0 0 240 320" role="img" aria-label="Super Sonic card">
  <title>Super Sonic</title>
  <defs>
    <linearGradient id="bg" x1="0" y1="0" x2="0" y2="1">
      <stop offset="0%" stop-color="#fde68a"/>
      <stop offset="100%" stop-color="#d97706"/>
    </linearGradient>
    <linearGradient id="sc" x1="0" y1="0" x2="0" y2="1">
      <stop offset="0%" stop-color="#ffe066"/>
      <stop offset="100%" stop-color="#d99400"/>
    </linearGradient>
  </defs>
  <rect x="4" y="4" width="232" height="312" rx="20" fill="url(#bg)"/>
  <rect x="4" y="4" width="232" height="312" rx="20" fill="none" stroke="#ffffff" stroke-width="6" opacity="0.5"/>
  <circle cx="120" cy="128" r="92" fill="#fde047" opacity="0.3"/>
  <g stroke-linejoin="round">
    <path d="M 168 84 C 194 84 210 94 216 114 C 198 118 182 114 172 106 C 168 98 167 91 168 84 Z" fill="url(#sc)" stroke="#2b2540" stroke-width="4"/>
    <path d="M 170 116 C 196 118 210 130 212 150 C 196 152 182 146 174 138 C 171 130 170 123 170 116 Z" fill="url(#sc)" stroke="#2b2540" stroke-width="4"/>
    <path d="M 96 56 L 84 26 L 118 42 Z" fill="url(#sc)" stroke="#2b2540" stroke-width="4"/>
    <path d="M 144 56 L 156 26 L 122 42 Z" fill="url(#sc)" stroke="#2b2540" stroke-width="4"/>
    <circle cx="120" cy="128" r="62" fill="url(#sc)" stroke="#2b2540" stroke-width="5"/>
    <ellipse cx="120" cy="160" rx="36" ry="24" fill="#f6d7a5"/>
    <ellipse cx="102" cy="120" rx="14" ry="17" fill="#ffffff" stroke="#2b2540" stroke-width="4"/>
    <ellipse cx="138" cy="120" rx="14" ry="17" fill="#ffffff" stroke="#2b2540" stroke-width="4"/>
    <circle cx="102" cy="122" r="7" fill="#ef4444"/>
    <circle cx="138" cy="122" r="7" fill="#ef4444"/>
    <ellipse cx="120" cy="148" rx="9" ry="7" fill="#1f2430"/>
    <path d="M 104 170 Q 120 180 136 170" stroke="#2b2540" stroke-width="5" fill="none" stroke-linecap="round"/>
  </g>
  <text x="120" y="252" text-anchor="middle" font-family="sans-serif" font-size="26" font-weight="bold" fill="#ffffff">Super Sonic</text>
  <text x="120" y="280" text-anchor="middle" font-family="sans-serif" font-size="16" font-weight="bold" fill="#ffffff" opacity="0.85">EXCLUSIVE</text>
</svg>
