<svg xmlns="http://www.w3.org/2000/svg" viewBox="0 0 240 320" role="img" aria-label="Charmy Bee card">
  <title>Charmy Bee</title>
  <defs>
    <linearGradient id="bg" x1="0" y1="0" x2="0" y2="1">
      <stop offset="0%" stop-color="#94a3b8"/>
      <stop offset="100%" stop-color="#64748b"/>
    </linearGradient>
    <linearGradient id="cb" x1="0" y1="0" x2="0" y2="1">
      <stop offset="0%" stop-color="#ffd23e"/>
      <stop offset="100%" stop-color="#d98200"/>
    </linearGradient>
  </defs>
  <rect x="4" y="4" width="232" height="312" rx="20" fill="url(#bg)"/>
  <rect x="4" y="4" width="232" height="312" rx="20" fill="none" stroke="#ffffff" stroke-width="6" opacity="0.5"/>
  <g stroke-linejoin="round">
    <path d="M 102 62 C 96 48 90 40 80 36 M 138 62 C 144 48 150 40 160 36" stroke="#1f2430" stroke-width="6" fill="none" stroke-linecap="round"/>
    <circle cx="78" cy="35" r="7" fill="#1f2430"/>
    <circle cx="162" cy="35" r="7" fill="#1f2430"/>
    <ellipse cx="72" cy="150" rx="18" ry="28" fill="#ffffff" opacity="0.65" stroke="#2b2540" stroke-width="4" transform="rotate(-24 72 150)"/>
    <ellipse cx="168" cy="150" rx="18" ry="28" fill="#ffffff" opacity="0.65" stroke="#2b2540" stroke-width="4" transform="rotate(24 168 150)"/>
    <circle cx="120" cy="130" r="62" fill="url(#cb)" stroke="#2b2540" stroke-width="5"/>
    <path d="M 66 108 C 74 68 166 68 174 108 L 168 108 C 160 80 80 80 72 108 Z" fill="#d81e1e" stroke="#2b2540" stroke-width="4"/>
    <path d="M 112 70 L 128 70 L 126 108 L 114 108 Z" fill="#ffffff" opacity="0.9"/>
    <ellipse cx="102" cy="132" rx="14" ry="17" fill="#ffffff" stroke="#2b2540" stroke-width="4"/>
    <ellipse cx="138" cy="132" rx="14" ry="17" fill="#ffffff" stroke="#2b2540" stroke-width="4"/>
    <circle cx="102" cy="134" r="7" fill="#1d4ed8"/>
    <circle cx="138" cy="134" r="7" fill="#1d4ed8"/>
    <ellipse cx="120" cy="158" rx="6" ry="5" fill="#1f2430"/>
    <path d="M 104 170 Q 120 180 136 170" stroke="#2b2540" stroke-width="5" fill="none" stroke-linecap="round"/>
  </g>
  <text x="120" y="252" text-anchor="middle" font-family="sans-serif" font-size="26" font-weight="bold" fill="#ffffff">Charmy Bee</text>
  <text x="120" y="280" text-anchor="middle" font-family="sans-serif" font-size="16" font-weight="bold" fill="#ffffff" opacity="0.85">COMMON</text>
</svg>
